<svg width="185" height="61" viewBox="0 0 185 61" fill="none" xmlns="http://www.w3.org/2000/svg">
<g filter="url(#filter0_d_32_147)">
<path d="M67.1994 12.7839C74.1506 12.2278 78.1128 16.329 78.1128 22.3765V31.3783C78.1128 38.5033 73.2122 41.0752 67.1994 41.0752H62.3336C62.0555 41.0752 61.847 40.8667 61.847 40.5886C61.847 40.102 62.3336 39.2679 62.3336 38.2252V15.6338C62.3336 14.5912 61.847 13.757 61.847 13.2704C61.847 12.9576 62.0555 12.7491 62.3336 12.7839C63.133 12.8534 63.7933 12.9229 64.5232 12.9229C65.2878 12.9229 66.0872 12.8534 67.1994 12.7839ZM67.1994 18.171V35.4795C67.1994 35.7923 67.408 36.0008 67.7208 36.0356C71.4049 36.2441 73.2469 34.5063 73.2469 31.0307V22.3765C73.2469 19.0747 71.3701 17.4064 67.7208 17.6149C67.408 17.6497 67.1994 17.8582 67.1994 18.171ZM86.4224 36.5569L89.5505 36.2094C92.1572 35.9313 93.0956 34.8886 93.5822 34.8886C93.895 34.8886 93.9297 35.2014 93.9645 35.4795L94.312 40.5886C94.3468 40.8667 94.1383 41.0752 93.8255 41.0752H81.0353C80.7572 41.0752 80.5487 40.8667 80.5487 40.5886C80.5487 40.102 81.0353 39.2679 81.0353 38.2252V19.596C81.0353 18.5533 80.5487 17.7192 80.5487 17.2326C80.5487 16.9198 80.7572 16.746 81.0353 16.746H93.3041C93.6169 16.746 93.8255 16.9546 93.7907 17.2326L93.0956 22.1332C93.0608 22.4113 93.0261 22.7241 92.7133 22.7241C92.2267 22.7241 91.2883 21.4033 88.6816 21.4033H86.4224C86.1096 21.4033 85.9011 21.6119 85.9011 21.9247V26.0954C85.9011 26.4082 86.1096 26.5125 86.4224 26.4777C88.1602 26.2692 89.1682 25.9216 90.9755 25.2265C91.323 25.0875 91.462 25.4698 91.462 25.9911V30.1618C91.462 30.4399 91.2883 30.6484 90.9755 30.6484C90.6279 30.6484 90.2456 30.3704 89.5157 30.3704C89.2724 30.3704 88.9596 30.4051 88.6121 30.5094L86.4224 31.0655C86.1096 31.135 85.9011 31.413 85.9011 31.7258V36.0356C85.9011 36.3484 86.1096 36.5917 86.4224 36.5569ZM102.646 36.5569L105.774 36.2094C108.381 35.9313 109.32 34.8886 109.806 34.8886C110.119 34.8886 110.154 35.2014 110.188 35.4795L110.536 40.5886C110.571 40.8667 110.362 41.0752 110.049 41.0752H97.2592C96.9812 41.0752 96.7726 40.8667 96.7726 40.5886C96.7726 40.102 97.2592 39.2679 97.2592 38.2252V19.596C97.2592 18.5533 96.7726 17.7192 96.7726 17.2326C96.7726 16.9198 96.9812 16.746 97.2592 16.746H109.528C109.841 16.746 110.049 16.9546 110.015 17.2326L109.32 22.1332C109.285 22.4113 109.25 22.7241 108.937 22.7241C108.451 22.7241 107.512 21.4033 104.906 21.4033H102.646C102.334 21.4033 102.125 21.6119 102.125 21.9247V26.0954C102.125 26.4082 102.334 26.5125 102.646 26.4777C104.384 26.2692 105.392 25.9216 107.199 25.2265C107.547 25.0875 107.686 25.4698 107.686 25.9911V30.1618C107.686 30.4399 107.512 30.6484 107.199 30.6484C106.852 30.6484 106.47 30.3704 105.74 30.3704C105.496 30.3704 105.184 30.4051 104.836 30.5094L102.646 31.0655C102.334 31.135 102.125 31.413 102.125 31.7258V36.0356C102.125 36.3484 102.334 36.5917 102.646 36.5569ZM118.349 33.846V38.2252C118.349 39.2679 118.836 40.102 118.836 40.5886C118.836 40.8667 118.662 41.0752 118.349 41.0752H113.483C113.205 41.0752 112.997 40.8667 112.997 40.5886C112.997 40.102 113.483 39.2679 113.483 38.2252V19.457C113.483 18.4143 112.997 17.5802 112.997 17.0936C112.997 16.7808 113.205 16.5723 113.483 16.607C114.317 16.7113 114.978 16.746 115.638 16.746C116.472 16.746 117.272 16.6765 118.349 16.607C124.431 16.1899 128.011 19.0747 128.011 24.4271C128.011 29.8838 124.883 32.6295 118.87 33.2899C118.558 33.3246 118.349 33.5332 118.349 33.846ZM118.349 21.8204V28.146C118.349 28.4588 118.558 28.6673 118.87 28.6673C121.373 28.6673 123.006 27.3118 123.006 24.7399C123.006 22.1332 121.303 21.021 118.87 21.2991C118.558 21.3338 118.349 21.5076 118.349 21.8204Z" fill="white"/>
<path d="M140.277 16.9893C139.964 16.9546 139.756 17.1979 139.756 17.5107V38.2252C139.756 39.2679 140.242 40.102 140.242 40.5886C140.242 40.8667 140.069 41.0752 139.756 41.0752H134.89C134.612 41.0752 134.403 40.8667 134.403 40.5886C134.403 40.102 134.89 39.2679 134.89 38.2252V17.5107C134.89 17.1979 134.681 16.9546 134.369 16.9893L132.805 17.2326C130.684 17.5454 129.955 18.6576 129.468 18.6576C129.155 18.6576 129.051 18.4838 129.086 18.0668L129.433 13.2009C129.468 12.8881 129.642 12.7143 129.92 12.7143C132.839 12.8534 134.994 12.9229 137.114 12.9229C139.373 12.9229 141.598 12.8534 144.726 12.7143C145.039 12.7143 145.178 12.8881 145.212 13.2009L145.56 18.0668C145.595 18.4838 145.49 18.6576 145.178 18.6576C144.691 18.6576 143.961 17.5454 141.841 17.2326L140.277 16.9893ZM153.219 36.5569L156.347 36.2094C158.954 35.9313 159.892 34.8886 160.379 34.8886C160.692 34.8886 160.726 35.2014 160.761 35.4795L161.109 40.5886C161.143 40.8667 160.935 41.0752 160.622 41.0752H147.832C147.554 41.0752 147.345 40.8667 147.345 40.5886C147.345 40.102 147.832 39.2679 147.832 38.2252V19.596C147.832 18.5533 147.345 17.7192 147.345 17.2326C147.345 16.9198 147.554 16.746 147.832 16.746H160.101C160.413 16.746 160.622 16.9546 160.587 17.2326L159.892 22.1332C159.857 22.4113 159.823 22.7241 159.51 22.7241C159.023 22.7241 158.085 21.4033 155.478 21.4033H153.219C152.906 21.4033 152.698 21.6119 152.698 21.9247V26.0954C152.698 26.4082 152.906 26.5125 153.219 26.4777C154.957 26.2692 155.965 25.9216 157.772 25.2265C158.12 25.0875 158.259 25.4698 158.259 25.9911V30.1618C158.259 30.4399 158.085 30.6484 157.772 30.6484C157.424 30.6484 157.042 30.3704 156.312 30.3704C156.069 30.3704 155.756 30.4051 155.409 30.5094L153.219 31.0655C152.906 31.135 152.698 31.413 152.698 31.7258V36.0356C152.698 36.3484 152.906 36.5917 153.219 36.5569ZM169.547 35.0277L168.956 38.2252C168.748 39.2679 169.2 40.102 169.095 40.5886C169.026 40.9014 168.817 41.0752 168.539 41.0752H163.291C162.978 41.0752 162.839 40.8667 162.909 40.5886C163.013 40.102 163.639 39.2679 163.882 38.2252L168.122 19.596C168.366 18.5533 168.018 17.7192 168.122 17.2326C168.192 16.9198 168.435 16.746 168.713 16.746H175.803C176.081 16.746 176.325 16.9198 176.394 17.2326C176.498 17.7192 176.151 18.5533 176.394 19.596L180.634 38.2252C180.878 39.2679 181.503 40.102 181.608 40.5886C181.677 40.8667 181.538 41.0752 181.225 41.0752H175.977C175.699 41.0752 175.491 40.9014 175.421 40.5886C175.317 40.102 175.769 39.2679 175.56 38.2252L175.178 36.2094C175.108 35.8966 174.865 35.6533 174.552 35.5838L170.173 34.6106C169.86 34.5411 169.617 34.7149 169.547 35.0277ZM171.111 30.3009L173.544 30.8917C173.857 30.9612 174.031 30.7874 173.961 30.4746L172.71 23.6972C172.606 23.2106 172.432 22.9326 172.258 22.9326C172.084 22.9326 171.911 23.1759 171.806 23.6972L170.694 29.6752C170.625 29.9881 170.798 30.2313 171.111 30.3009Z" fill="#E5B975"/>
</g>
<g filter="url(#filter1_d_32_147)">
<path d="M16.3154 52.6792C15.79 52.4735 15.3034 52.265 14.8585 52.0524L10.3295 18.1071C10.4251 18.1264 10.5222 18.143 10.6206 18.161L10.7786 18.1886L11.0711 18.2397L11.3789 18.2921L11.6811 18.3418L11.9583 18.3874L16.3154 52.6792Z" fill="#CA915A"/>
<path d="M14.3774 51.8162C13.5942 51.4269 12.969 51.0652 12.5295 50.7987C11.627 44.9308 10.4889 39.063 9.4686 33.2034L6.67386 17.1613C6.76628 17.2055 6.87025 17.2515 6.98577 17.2994L7.08558 17.3367H7.10638L7.23392 17.3808H7.24917L7.42522 17.4375L7.66228 17.5079L7.7108 17.5217L7.81893 17.552L7.98112 17.5962L8.12946 17.6349L8.35403 17.6901L8.5093 17.7274L8.8323 17.802L9.08737 17.8572L14.3774 51.8162Z" fill="#CA915A"/>
<path d="M14.8584 52.0524L14.8196 52.033C14.681 51.9668 14.5424 51.895 14.4037 51.8342L14.376 51.8204L9.08179 17.8627C9.46717 17.947 9.88167 18.0284 10.317 18.1071L14.8584 52.0524Z" fill="#AC7E51"/>
<path d="M18.9507 53.5366C18.2326 53.3516 17.5548 53.1362 16.9268 52.9097L13.1838 18.5751C13.9407 18.6856 14.7156 18.7905 15.4836 18.8886L15.8108 18.93L16.1089 18.9672L18.9507 53.5366Z" fill="#CA915A"/>
<path d="M13.1811 18.5752L16.924 52.9098C16.7438 52.8449 16.5691 52.7786 16.3972 52.7123L16.3127 52.6792L11.9528 18.3874C12.3535 18.4509 12.7652 18.513 13.1811 18.5752Z" fill="#AC7E51"/>
<path d="M19.5829 53.6926L17.4605 19.1288H17.4966H17.5312L17.6449 19.1412L17.7308 19.1509C18.4794 19.2351 19.1934 19.311 19.8518 19.3732L20.0196 19.3897L20.4355 19.4298L21.7732 54.0654C21.037 53.9797 20.3059 53.8552 19.5829 53.6926Z" fill="#CA915A"/>
<path d="M17.4605 19.1288L19.5829 53.6912L19.551 53.6843H19.5302L19.0159 53.5573L18.9508 53.5421L16.1061 18.9673C16.5677 19.0239 17.0169 19.0777 17.4605 19.1288Z" fill="#AC7E51"/>
<path d="M30.2448 19.1785L27.2671 53.9535C26.5875 54.0682 25.9021 54.1452 25.214 54.1841L26.8775 19.5098L27.2158 19.4808L27.4681 19.4587C27.8396 19.4256 28.2375 19.3883 28.6561 19.3469L28.8474 19.3276L29.1441 19.2972L29.4463 19.2654L29.9093 19.2157L30.2226 19.1812L30.2448 19.1785Z" fill="#CA915A"/>
<path d="M24.5056 19.6231L24.457 54.2103C24.3295 54.2103 24.202 54.2103 24.0758 54.2103C23.5463 54.2103 23.0278 54.1855 22.5218 54.1441L22.1919 19.5803L22.5135 19.5955H22.6175H22.7117H22.7935H22.8836H23.0333H23.2551C23.4756 19.5955 23.7528 19.5954 24.0758 19.5858H24.2907L24.5056 19.6231Z" fill="#CA915A"/>
<path d="M22.1919 19.5844L22.5288 54.1482H22.4414L21.8176 54.0847H21.7788L20.441 19.4491C21.2728 19.5237 21.9881 19.5803 22.5204 19.612L22.1919 19.5844Z" fill="#AC7E51"/>
<path d="M26.872 19.5084L25.2084 54.1827C24.9533 54.1965 24.701 54.2061 24.4515 54.2089L24.5 19.6216H24.8896C25.2611 19.6258 25.9598 19.5844 26.872 19.5084Z" fill="#AC7E51"/>
<path d="M33.9601 18.7174L28.9999 53.5808C28.5933 53.6885 28.1904 53.7806 27.7911 53.857L32.0442 18.9659L32.3423 18.9287L32.6764 18.8858L33.0008 18.8444L33.1796 18.821L33.8506 18.7312L33.9601 18.7174Z" fill="#CA915A"/>
<path d="M32.0442 18.9673L27.7966 53.8583C27.621 53.8942 27.4464 53.926 27.2726 53.9536L30.2504 19.1785C30.8284 19.1136 31.4328 19.0432 32.0442 18.9673Z" fill="#AC7E51"/>
<path d="M37.7654 18.1278L31.401 52.7703C30.7643 53.0355 30.1137 53.2659 29.4518 53.4606L34.7544 18.6124L35.3408 18.5254L35.7054 18.4702L36.6051 18.3321L36.7742 18.3045L36.9918 18.2686L37.075 18.2548L37.7654 18.1278Z" fill="#CA915A"/>
<path d="M34.7571 18.6055L29.4602 53.4537H29.4366L29.0055 53.5738L33.9656 18.7104C34.2281 18.6791 34.4919 18.6441 34.7571 18.6055Z" fill="#AC7E51"/>
<path d="M33.619 51.6961L34.0806 51.431C33.4381 51.8131 32.7749 52.1598 32.0941 52.4693L38.3767 18.0035C38.9312 17.8958 39.4442 17.784 39.9016 17.6721L33.619 51.6961Z" fill="#CA915A"/>
<path d="M38.3767 18.0035L32.0941 52.4693C31.8681 52.5729 31.6353 52.6736 31.401 52.7703L37.7654 18.1278L37.0723 18.2396C37.5297 18.1637 37.965 18.0836 38.3767 18.0035Z" fill="#AC7E51"/>
<path d="M41.4779 17.1613C40.4021 23.3283 39.3268 29.5004 38.252 35.6775C37.5755 39.5554 36.8994 43.4346 36.2238 47.3152C36.0464 48.3369 35.8685 49.3591 35.6901 50.3817C35.2077 50.7283 34.6726 51.0845 34.0848 51.4324L40.4118 17.5341L40.4368 17.5272C40.5929 17.483 40.7385 17.437 40.8734 17.3891C41.0084 17.3413 41.1373 17.2952 41.2602 17.2511L41.3503 17.2138C41.3974 17.1972 41.439 17.1793 41.4779 17.1613Z" fill="#CA915A"/>
<path d="M40.4118 17.5341L34.0848 51.4311L33.619 51.6961L39.8961 17.6722C40.0805 17.6266 40.2538 17.5755 40.4118 17.5341Z" fill="#AC7E51"/>
<path opacity="0.43" d="M17.4596 19.1273L17.2914 19.1067" stroke="white" stroke-width="0.724082" stroke-miterlimit="10" stroke-linejoin="round"/>
<path d="M43.2994 7.41371C43.2994 7.41371 42.5494 13.8297 42.4233 15.3112C42.4122 15.4492 42.2777 15.5804 42.0448 15.7171C41.4335 16.0719 40.1345 16.4337 38.5056 16.7733C33.8228 17.7508 29.0956 18.5419 24.0758 18.5419C17.4896 18.5419 8.27221 16.6711 6.10683 15.7143C5.86146 15.6053 5.73808 15.4382 5.72699 15.3084C5.60084 13.8269 4.85086 7.41095 4.85086 7.41095C5.22654 7.90523 16.9268 9.24449 24.0758 9.24449C31.0169 9.24725 42.9251 7.91075 43.2994 7.41371Z" fill="#E3F4FD" stroke="white" stroke-width="1.44816" stroke-miterlimit="10" stroke-linejoin="round"/>
<path d="M6.22467 15.7172C10.884 13.689 21.0149 13.689 24.1923 13.689C26.5323 13.689 38.3753 13.9734 41.8078 15.7172C42.1557 16.1562 41.9589 16.46 41.7981 16.9598C37.5574 18.7464 28.4509 19.6576 24.0744 19.6148C20.2081 19.5775 10.0522 18.1278 6.67383 17.1614C5.89335 16.9335 6.22467 15.7172 6.22467 15.7172Z" fill="#E5B975" stroke="white" stroke-width="1.44816" stroke-miterlimit="10" stroke-linejoin="round"/>
<path d="M43.2994 7.41375C42.9251 7.90803 30.9227 9.21691 24.0758 9.24729C17.473 9.27628 5.22241 7.90803 4.85088 7.41375C4.47936 6.91947 3.97337 4.67035 4.00109 2.82025L4.02466 2.84786C4.08239 2.98012 4.17907 3.09182 4.30192 3.16818C6.04724 4.41907 15.1759 5.20744 24.0758 5.31513C32.9758 5.20744 42.0975 4.41907 43.8498 3.16818C43.9719 3.09098 44.0684 2.97953 44.127 2.84786L44.1492 2.82025C44.1783 4.67035 43.6765 6.92085 43.2994 7.41375Z" fill="#C6D8E2" stroke="white" stroke-width="1.44816" stroke-miterlimit="10" stroke-linejoin="round"/>
<path d="M44.1269 2.84785L43.8496 3.16816C42.1029 4.41905 32.9756 5.20742 24.0757 5.31511C15.1758 5.20742 6.05402 4.41905 4.30176 3.16816L4.0245 2.84785C4.00225 2.79023 3.99696 2.72749 4.00925 2.66698C4.23799 1.49617 14.2955 0.920426 24.0757 1.01017C33.8559 0.914903 43.9134 1.49064 44.1407 2.66698C44.1535 2.72735 44.1487 2.7901 44.1269 2.84785Z" fill="#C6D8E2" stroke="white" stroke-width="1.44816" stroke-miterlimit="10" stroke-linejoin="round"/>
<path d="M12.6676 50.897C12.6676 50.897 8.0896 27.8079 6.69629 17.2586C9.74829 17.7894 17.6437 19.6471 24.2121 19.6471C30.7806 19.6471 38.5433 18.2538 41.5289 17.2586L35.7567 50.4989C35.7567 50.4989 29.1882 54.2807 24.2121 54.2807C19.236 54.2807 12.6676 50.897 12.6676 50.897Z" stroke="white" stroke-width="1.44816" stroke-linejoin="round"/>
</g>
<defs>
<filter id="filter0_d_32_147" x="58.9507" y="12.2278" width="125.623" height="34.6401" filterUnits="userSpaceOnUse" color-interpolation-filters="sRGB">
<feFlood flood-opacity="0" result="BackgroundImageFix"/>
<feColorMatrix in="SourceAlpha" type="matrix" values="0 0 0 0 0 0 0 0 0 0 0 0 0 0 0 0 0 0 127 0" result="hardAlpha"/>
<feOffset dy="2.89633"/>
<feGaussianBlur stdDeviation="1.44816"/>
<feComposite in2="hardAlpha" operator="out"/>
<feColorMatrix type="matrix" values="0 0 0 0 0 0 0 0 0 0 0 0 0 0 0 0 0 0 0.25 0"/>
<feBlend mode="normal" in2="BackgroundImageFix" result="effect1_dropShadow_32_147"/>
<feBlend mode="normal" in="SourceGraphic" in2="effect1_dropShadow_32_147" result="shape"/>
</filter>
<filter id="filter1_d_32_147" x="0.379581" y="0.27594" width="47.3913" height="60.5215" filterUnits="userSpaceOnUse" color-interpolation-filters="sRGB">
<feFlood flood-opacity="0" result="BackgroundImageFix"/>
<feColorMatrix in="SourceAlpha" type="matrix" values="0 0 0 0 0 0 0 0 0 0 0 0 0 0 0 0 0 0 127 0" result="hardAlpha"/>
<feOffset dy="2.89633"/>
<feGaussianBlur stdDeviation="1.44816"/>
<feComposite in2="hardAlpha" operator="out"/>
<feColorMatrix type="matrix" values="0 0 0 0 0 0 0 0 0 0 0 0 0 0 0 0 0 0 0.25 0"/>
<feBlend mode="normal" in2="BackgroundImageFix" result="effect1_dropShadow_32_147"/>
<feBlend mode="normal" in="SourceGraphic" in2="effect1_dropShadow_32_147" result="shape"/>
</filter>
</defs>
</svg>
